<svg preserveAspectRatio="none" overflow="visible" style="display: block;" width="25.8423" height="24.7736" viewBox="0 0 25.8423 24.7736" fill="none" xmlns="http://www.w3.org/2000/svg">
<path id="Star 1" d="M11.1277 1.11487C11.8613 -0.371624 13.981 -0.371621 14.7146 1.11487L17.1581 6.06588C17.4494 6.65617 18.0126 7.0653 18.664 7.15996L24.1277 7.95389C25.7682 8.19226 26.4232 10.2082 25.2362 11.3653L21.2826 15.2191C20.8112 15.6786 20.5961 16.3406 20.7074 16.9894L21.6407 22.4311C21.9209 24.0649 20.206 25.3108 18.7388 24.5394L13.8518 21.9702C13.2692 21.6639 12.5731 21.6639 11.9905 21.9702L7.10355 24.5394C5.63629 25.3108 3.92143 24.0649 4.20165 22.431L5.13497 16.9894C5.24625 16.3406 5.03115 15.6786 4.55978 15.2191L0.606162 11.3653C-0.580873 10.2082 0.0741498 8.19226 1.71459 7.95389L7.17835 7.15996C7.82977 7.0653 8.3929 6.65617 8.68423 6.06588L11.1277 1.11487Z" fill="#F9DE0F"/>
</svg>
