<svg preserveAspectRatio="none" overflow="visible" style="display: block;" width="226.999" height="112" viewBox="0 0 226.999 112" fill="none" xmlns="http://www.w3.org/2000/svg">
<g id="Stroke" clip-path="url(#clip0_0_246)">
<g id="Stoke SH" filter="url(#filter0_f_0_246)">
<path d="M0 97.0078L11.4508 88.279C14.5988 85.8793 19.0125 86.0746 21.9363 88.7429L22.711 89.4498C25.5032 91.998 29.8037 91.9067 32.4853 89.2424C35.6279 86.12 40.8325 86.6131 43.3328 90.27L46.3471 94.6787C51.2297 101.82 61.9444 101.243 66.0327 93.6197L66.7676 92.2493C69.3544 87.4252 74.7832 84.8503 80.1557 85.8992L83.1172 86.4773C91.4031 88.095 99.5803 83.2235 102.103 75.1668L109.909 50.2351C111.811 44.1605 118.104 40.608 124.288 42.1184L127.557 42.9169C131.567 43.8964 135.682 41.7531 137.178 37.9057C140.078 30.4474 150.84 31.0985 152.82 38.852L155.139 47.9359C156.679 53.965 164.149 56.0928 168.634 51.7797C172.423 48.1362 178.623 48.9984 181.274 53.5375L183.802 57.8666C188.383 65.7095 199.659 65.8704 204.461 58.1615L207.098 53.9286C209.177 50.5921 212.476 48.1996 216.293 47.261L226.999 44.6285" stroke="#8DC86A" stroke-linecap="round"/>
</g>
<path id="Stroke double" d="M0 83.0078L11.4508 74.279C14.5988 71.8793 19.0125 72.0746 21.9363 74.7429L22.711 75.4498C25.5032 77.998 29.8037 77.9067 32.4853 75.2424C35.6279 72.12 40.8325 72.6131 43.3328 76.27L46.3471 80.6787C51.2297 87.8199 61.9444 87.2435 66.0327 79.6197L66.7676 78.2493C69.3544 73.4252 74.7832 70.8503 80.1557 71.8992L83.1172 72.4773C91.4031 74.095 99.5803 69.2235 102.103 61.1668L109.909 36.2351C111.811 30.1605 118.104 26.608 124.288 28.1184L127.557 28.9169C131.567 29.8964 135.682 27.7531 137.178 23.9057C140.078 16.4474 150.84 17.0985 152.82 24.852L155.139 33.9359C156.679 39.965 164.149 42.0928 168.634 37.7797C172.423 34.1362 178.623 34.9984 181.274 39.5375L183.802 43.8666C188.383 51.7095 199.659 51.8704 204.461 44.1615L207.098 39.9286C209.177 36.5921 212.476 34.1996 216.293 33.261L226.999 30.6285" stroke="white" stroke-width="8" stroke-linecap="round"/>
<path id="Stroke_2" d="M0 83.0078L11.4508 74.279C14.5988 71.8793 19.0125 72.0746 21.9363 74.7429L22.711 75.4498C25.5032 77.998 29.8037 77.9067 32.4853 75.2424C35.6279 72.12 40.8325 72.6131 43.3328 76.27L46.3471 80.6787C51.2297 87.8199 61.9444 87.2435 66.0327 79.6197L66.7676 78.2493C69.3544 73.4252 74.7832 70.8503 80.1557 71.8992L83.1172 72.4773C91.4031 74.095 99.5803 69.2235 102.103 61.1668L109.909 36.2351C111.811 30.1605 118.104 26.608 124.288 28.1184L127.557 28.9169C131.567 29.8964 135.682 27.7531 137.178 23.9057C140.078 16.4474 150.84 17.0985 152.82 24.852L155.139 33.9359C156.679 39.965 164.149 42.0928 168.634 37.7797C172.423 34.1362 178.623 34.9984 181.274 39.5375L183.802 43.8666C188.383 51.7095 199.659 51.8704 204.461 44.1615L207.098 39.9286C209.177 36.5921 212.476 34.1996 216.293 33.261L226.999 30.6285" stroke="#71AE4E" stroke-linecap="round"/>
</g>
<defs>
<filter id="filter0_f_0_246" x="-15.5" y="17.1587" width="257.999" height="98.0444" filterUnits="userSpaceOnUse" color-interpolation-filters="sRGB">
<feFlood flood-opacity="0" result="BackgroundImageFix"/>
<feBlend mode="normal" in="SourceGraphic" in2="BackgroundImageFix" result="shape"/>
<feGaussianBlur stdDeviation="7.5" result="effect1_foregroundBlur_0_246"/>
</filter>
<clipPath id="clip0_0_246">
<rect width="226.999" height="112" fill="white"/>
</clipPath>
</defs>
</svg>
