<svg width="24" height="24" viewBox="0 0 24 24" fill="none" color="#E2E2EC" xmlns="http://www.w3.org/2000/svg">
  <path d="M 18 12.5 L 14.5 16 L 11 12.5" fill="none" stroke="currentColor" stroke-width="1" stroke-linecap="butt" stroke-linejoin="round" transform="matrix(1 0 0 1 3 4)"/>
  <path d="M 18 3.5 L 14.5 0 L 11 3.5" fill="none" stroke="currentColor" stroke-width="1" stroke-linecap="butt" stroke-linejoin="round" transform="matrix(1 0 0 1 3 4)"/>
  <path d="M 0 0.5 L 8 0.5 " fill="none" stroke="currentColor" stroke-width="1" stroke-linecap="butt" stroke-linejoin="miter" transform="matrix(1 0 0 1 3 4)"/>
  <path d="M 0 5.5 L 8 5.5 " fill="none" stroke="currentColor" stroke-width="1" stroke-linecap="butt" stroke-linejoin="miter" transform="matrix(1 0 0 1 3 4)"/>
  <path d="M 0 10.5 L 8 10.5 " fill="none" stroke="currentColor" stroke-width="1" stroke-linecap="butt" stroke-linejoin="miter" transform="matrix(1 0 0 1 3 4)"/>
  <path d="M 0 15.5 L 8 15.5 " fill="none" stroke="currentColor" stroke-width="1" stroke-linecap="butt" stroke-linejoin="miter" transform="matrix(1 0 0 1 3 4)"/>
  <path d="M 14.5 0 L 14.5 16" fill="none" stroke="currentColor" stroke-width="1" stroke-linecap="butt" stroke-linejoin="miter" transform="matrix(1 0 0 1 3 4)"/>
</svg>
