<svg preserveAspectRatio="none" overflow="visible" style="display: block;" width="121" height="73" viewBox="0 0 121 73" fill="none" xmlns="http://www.w3.org/2000/svg">
<g id="Secondary" clip-path="url(#clip0_0_274)">
<path id="Line" d="M0 73L5.62754 57.2511C7.69534 51.4644 13.4462 47.8365 19.5593 48.4625L23.6442 49.27C27.806 50.0926 32.0247 48.1456 34.0988 44.4449C38.4058 36.7604 49.8742 38.2125 52.13 46.728L53.5787 52.1968C54.5988 56.0476 57.7297 58.9768 61.6398 59.7386L62.1542 59.8388C66.6691 60.7184 71.1844 58.3222 72.9867 54.0903L75.4126 48.3941C76.8161 45.0985 81.0302 44.1372 83.724 46.4982C86.935 49.3124 91.9843 47.3333 92.4278 43.0866L94.8613 19.7809C95.2527 16.032 98.0414 12.9757 101.739 12.2433C106.141 11.3713 110.473 14.0337 111.684 18.3554L121 51.6128" stroke="#909296" stroke-miterlimit="2.61313" stroke-linecap="round" stroke-dasharray="8 4"/>
</g>
<defs>
<clipPath id="clip0_0_274">
<rect width="121" height="73" fill="white"/>
</clipPath>
</defs>
</svg>
